<svg xmlns="http://www.w3.org/2000/svg" viewBox="0 0 143.95 143.61"><defs><style>.cls-1{fill:#ee2926;}.cls-2{fill:#41489e;}.cls-3{fill:#42489e;}.cls-4{fill:#42499e;}.cls-5{fill:#43499e;}.cls-6{fill:#444a9f;}.cls-7{fill:#d6d4eb;}.cls-8{fill:#e4e3f2;}.cls-9{fill:#e0dff0;}.cls-10{fill:#d3d2e9;}.cls-11{fill:#ebeaf5;}.cls-12{fill:#dedcef;}.cls-13{fill:#e9e8f4;}.cls-14{fill:#dcdbee;}.cls-15{fill:#e7e6f3;}.cls-16{fill:#eae9f5;}.cls-17{fill:#ecebf6;}.cls-18{fill:#e8e7f4;}.cls-19{fill:#7c7aba;}.cls-20{fill:#7d7bba;}.cls-21{fill:#8b88c2;}.cls-22{fill:#9390c6;}.cls-23{fill:#9996ca;}.cls-24{fill:#6c6cb1;}.cls-25{fill:#7573b6;}.cls-26{fill:#7675b7;}.cls-27{fill:#9c9acb;}.cls-28{fill:#9592c7;}.cls-29{fill:#a09dce;}.cls-30{fill:#7674b6;}.cls-31{fill:#fffffe;}</style></defs><title>Asset 2</title><g id="Layer_2" data-name="Layer 2"><g id="Layer_1-2" data-name="Layer 1"><path class="cls-1" d="M105.05,67.51c-.1,1.12-.87,1.62-1.44,2.24-8.82,9.48-17.68,18.9-26.42,28.45-1.44,1.56-2.25,1.22-3.55,0Q59.39,84.76,45,71.43c-1.33-1.23-1.36-2-.16-3.25Q58.47,53.81,72,39.34c1.1-1.18,1.8-1.23,3-.11q14.42,13.53,28.93,27C104.33,66.64,104.71,67.13,105.05,67.51Z"/><path class="cls-2" d="M30.82,122.69c-7.56-4.83-12.7-11.88-16.9-19.5A68.61,68.61,0,0,1,58.22,3C61.9,2.12,66,2.66,69.28.24,70-.3,71,.15,71.62.87A2.3,2.3,0,0,1,72,3.61a2,2,0,0,1-2.16,1.16C61.18,2.87,53.48,6.27,46,9.67,2.86,29.28-6.12,86.79,28.86,118.72c.81.74,1.88,1.27,2.11,2.5A1.12,1.12,0,0,1,30.82,122.69Z"/><path class="cls-2" d="M101.91,101.79a49.84,49.84,0,0,1-22.53,10.07c-22.93,3.66-46.41-15-47.8-38.21C30.2,50.71,44,32.72,66.51,28.09a8,8,0,0,0,3.74-1.48A2,2,0,0,1,73,27a2.14,2.14,0,0,1,.54,2.4,2.25,2.25,0,0,1-2.32,1.57c-15-1-24.89,7.1-32.05,18.83-10.24,16.8-6.12,38.38,9,51a40.44,40.44,0,0,0,51.32.13c.29-.24.59-.44.89-.67a2,2,0,0,1,1.55-.41C103.23,100.44,102.88,101.1,101.91,101.79Z"/><path class="cls-2" d="M132.54,92.83c-3.73,11.4-11,20.27-20.38,27.37a63.26,63.26,0,0,1-89.94-13.67,9.84,9.84,0,0,0-3.48-3.21,2,2,0,0,1-.72-2.63,2.1,2.1,0,0,1,2.3-1.51c1.06.06,2.16.64,2.15,1.71,0,4.14,3,6.46,5.3,9.08,28.76,33.19,82.78,25.66,101.41-14.08.67-1.43,1.71-2.81,1.23-4.57a1.08,1.08,0,0,1,1-.11A2.11,2.11,0,0,1,132.54,92.83Z"/><path class="cls-2" d="M71.32,123c-4.06-1.26-8.37-1.09-12.43-2.45-21.54-7.21-34.65-22-37.46-44.45-2.72-21.73,6.23-38.81,24.41-51,1.13-.76,2.31-1.33,2.87-2.76A2,2,0,0,1,51.5,21.2a2.29,2.29,0,0,1,1.65,2.61,2.05,2.05,0,0,1-2.34,1.94c-2.3-.42-3.78,1-5.35,2.08C26.82,40.78,18.93,62.54,25.05,84c5.83,20.39,24.42,35.08,46.22,36.52A1.82,1.82,0,0,1,71.32,123Z"/><path class="cls-3" d="M130.33,117.5c-11.71,13.14-26,21.91-43.46,24.92C66,146,46.9,141.37,29.7,129c-1.86-1.34-3.32-3.33-6-3.48-1-.07-1.57-1.22-1.5-2.3A2.16,2.16,0,0,1,24,121.05a2,2,0,0,1,2.55,1c2.15,5.16,7.11,7.13,11.37,9.61,30.21,17.53,67.39,11.1,90.33-15.39a3.6,3.6,0,0,1,.58-.45C130,115.8,130.59,116.26,130.33,117.5Z"/><path class="cls-4" d="M29.12,87.65C27.67,81.25,26,75,26.18,68.25c.62-24.5,21.18-45.16,45.7-45.92,4.7-.15,9.34,1.34,14,.2,1-.23,1.64.41,2.08,1.25a2.28,2.28,0,0,1-.35,2.76,2,2,0,0,1-2.38.53c-16.52-6.58-30.33-.75-42.72,9.85C29.45,48.11,24.64,69.38,31,85.22c.13.32.48.55.72.83C31.53,87.67,30.57,88.07,29.12,87.65Z"/><path class="cls-4" d="M29.4,32.33C42.56,17.75,58.8,10.57,78.56,12a56.51,56.51,0,0,1,32,12.86c1.34,1.08,2.46,2.41,4.38,2.65A2,2,0,0,1,116.74,30a2.37,2.37,0,0,1-1.88,2.1,2,2,0,0,1-2.64-1.48c-.44-2.21-2.12-3.3-3.62-4.52C85.11,7,49.66,10.86,30.7,34.45a.92.92,0,0,1-.86.12,2,2,0,0,1-.89-1A1,1,0,0,1,29.4,32.33Z"/><path class="cls-4" d="M10,66.42c1.39-4.38,1.35-9,2.75-13.43C21,27.23,38.22,11.88,65,7.33c1.78-.3,3.73-.13,5.19-1.7.79-.85,1.87-.36,2.68.31a2.06,2.06,0,0,1,.55,2.69,2.11,2.11,0,0,1-2.47,1.26c-8.31-2-15.78,1.2-22.83,4.57-19.82,9.45-31.49,25.32-35,47.06a41.2,41.2,0,0,0-.19,5.22A2,2,0,0,1,10,66.42Z"/><path class="cls-4" d="M142.39,74.73c-3,26.9-16.51,46.35-41.17,57.82a8.38,8.38,0,0,0-2.77,2.37A2.37,2.37,0,0,1,94.54,133c.2-1,.84-2.05,1.89-2.05,7.13,0,12.23-4.51,17.32-8.35C129.56,110.7,138.4,94.69,140,74.83A1.75,1.75,0,0,1,142.39,74.73Z"/><path class="cls-5" d="M4.52,98.09c.69-3.91-1.63-7.15-2.45-10.73C-2,69.72-.15,52.82,7.86,36.58c.91-1.86,2.34-3.49,2.08-5.83-.12-1.13.92-1.79,1.9-2A2.18,2.18,0,0,1,14.31,30a2.16,2.16,0,0,1-.38,2.76C8.23,36.9,7,43.46,5.18,49.5a68.06,68.06,0,0,0,2.33,47C6.82,97.62,6,98.51,4.52,98.09Z"/><path class="cls-6" d="M59.27,103.42C52.6,101.78,48.33,97,44.06,92.09c-4.54-5.21-5.12-12.25-8.48-18-.49-.82.13-1.69.78-2.31a2,2,0,0,1,2.4-.47,2.28,2.28,0,0,1,1.58,2.32c-1.58,9.41,4,15.64,9.74,21.67a21.26,21.26,0,0,0,10.54,6.54C61,103.11,60.36,103.45,59.27,103.42Z"/><path class="cls-6" d="M110.9,74.84c-2.24,11.39-7.83,20.54-17.8,26.81-.77.49-1.16,1.55-1.81,2.27a2.06,2.06,0,0,1-2.69.52,2.43,2.43,0,0,1-1.38-2.09,2.13,2.13,0,0,1,1.57-2.27c11.34-2.87,15.5-12,19-21.73a28.92,28.92,0,0,0,.8-3.63A1.71,1.71,0,0,1,110.9,74.84Z"/><path class="cls-6" d="M107.91,10.38a67.3,67.3,0,0,1,16.72,13.51,10,10,0,0,0,3.65,2.42,2.05,2.05,0,0,1,1.07,2.53,2.48,2.48,0,0,1-1.76,1.78,2,2,0,0,1-2.55-1C121.75,21.1,114,17.35,107.21,12.52c-.51-.08-1-.22-1-.85C106.4,10.78,106.81,10.12,107.91,10.38Z"/><path class="cls-7" d="M29.12,87.65a3.2,3.2,0,0,0,2.62-1.6c2.07.58,2.3,2.25,1.76,3.81-.35,1-1.2,2.48-2.7,2.06C28.54,91.3,29.58,89.12,29.12,87.65Z"/><path class="cls-8" d="M30.82,122.69l.15-1.47c2-.44,4-.57,4.19,2a2.66,2.66,0,0,1-2.74,2.94C30.2,126.08,31,124.05,30.82,122.69Z"/><path class="cls-9" d="M71.32,123l0-2.49a2,2,0,0,0,.32-.17c1.31-1,2.57-2,4.1-.24a1.66,1.66,0,0,1-.09,2.55C74.28,124.08,72.89,124.66,71.32,123Z"/><path class="cls-10" d="M4.52,98.09c1.1-.33,1.64-1.71,3-1.57l1.6.5c.85,1.45.13,2.68-.58,3.91C5.61,101.8,4.12,100.75,4.52,98.09Z"/><path class="cls-11" d="M132.54,92.83l-1.49-1.47a1.86,1.86,0,0,1,.07-2.48c.27-1.65,1.44-1.42,2.48-1a2.75,2.75,0,0,1,1.7,2.58C135.37,92.16,133.56,92.12,132.54,92.83Z"/><path class="cls-12" d="M110.9,74.84l-2.33-.12c-1.83-1.4-.82-2.84.22-3.91a1.83,1.83,0,0,1,2.86.36C112.85,72.7,112.21,73.83,110.9,74.84Z"/><path class="cls-13" d="M130.33,117.5a2.46,2.46,0,0,0-1.5-1.68c.06-1.28-.35-2.82,1.34-3.35,1.07-.34,2.23-.42,2.4,1.21a3.46,3.46,0,0,1,.8,2.63C132.75,117.71,131.21,116.76,130.33,117.5Z"/><path class="cls-14" d="M142.39,74.73l-2.4.1c-1.31-1.34-.44-3-.65-4.49,1,0,2.12-.68,2.76.67C145.28,72,143.66,73.39,142.39,74.73Z"/><path class="cls-15" d="M101.91,101.79c0-.5,1.07-1,0-1.5-1.87-1.11-.79-2.38-.18-3.62a2,2,0,0,1,2.33-.14c1.68.78,2.32,1.85,1,3.47C104.86,102.12,103.33,101.86,101.91,101.79Z"/><path class="cls-16" d="M59.27,103.42l1.35-1.57c3.47-1,3.79.84,3.19,3.52-1.35,1.21-2.76.79-4.18.14Z"/><path class="cls-17" d="M107.91,10.38c-.75.31-1.43.69-1.48,1.63a2.28,2.28,0,0,1-3-.39c-.91-.83-1.5-1.68-.07-2.57C106.08,5.51,106.67,9,107.91,10.38Z"/><path class="cls-18" d="M29.43,33.52l.84.83c.57,1.57.34,2.74-1.52,3.12-1.59-.06-3.46.16-2.45-2.47C26.72,33.18,27.88,32.94,29.43,33.52Z"/><path class="cls-11" d="M10,66.42l2.95.32a4.75,4.75,0,0,0,.31.59c1.41,1.28.76,2.22-.51,3l-2.49,0c-1.31-.92-1.05-2-.33-3.13Z"/><path class="cls-19" d="M29.43,33.52A3.05,3.05,0,0,0,26.3,35c-.62-2.8,1.6-2.32,3.1-2.67Z"/><path class="cls-20" d="M28.75,37.47c1.3-.65,1.5-1.84,1.52-3.12a.45.45,0,0,1,.43.1C31.41,36.87,30.93,37.61,28.75,37.47Z"/><path class="cls-21" d="M105,100c.64-1.42-.19-2.43-1-3.47C106.72,97.41,107,98.25,105,100Z"/><path class="cls-22" d="M59.63,105.51l4.18-.14C62.5,107.92,61.08,107.11,59.63,105.51Z"/><path class="cls-23" d="M9.9,67.28l.33,3.13C8.47,69.54,7.13,68.63,9.9,67.28Z"/><path class="cls-24" d="M101.73,96.67c-.1,1.22-.82,2.46.18,3.62l-1.6-.07C100.46,98.91,100.23,97.45,101.73,96.67Z"/><path class="cls-25" d="M103.41,11.17c.82,1,2,.66,3,.84l.78.51c-1.33.09-2.73.94-3.9-.41A.58.58,0,0,1,103.41,11.17Z"/><path class="cls-26" d="M12.72,70.38a2.65,2.65,0,0,0,.52-3c1.53,0,1.27,1.18,1.07,2C14.16,70,14,71.15,12.72,70.38Z"/><path class="cls-25" d="M8.53,100.93c.19-1.31.39-2.61.58-3.91C10.52,98.56,10.19,99.84,8.53,100.93Z"/><path class="cls-27" d="M103.41,11.17c0,.32-.06.63-.1.94-1.19-1.06-2.69-2.12.09-3.06A2.33,2.33,0,0,0,103.41,11.17Z"/><path class="cls-28" d="M131.12,88.88l-.07,2.48a4.68,4.68,0,0,1-.64,0C129,90,129.52,89.3,131.12,88.88Z"/><path class="cls-29" d="M133.37,116.31c-1-.66-.57-1.74-.8-2.63C134.81,114,134.18,115.11,133.37,116.31Z"/><path class="cls-30" d="M142.1,71c-.79-.73-2,.29-2.76-.67C140.45,69.78,141.73,68.54,142.1,71Z"/><path class="cls-31" d="M88.45,68.52c-.44.52-.83,1-1.25,1.46-3.59,3.8-7.26,7.53-10.76,11.42-1.33,1.48-2.14,1.37-3.48,0-3.63-3.6-7.34-7.12-11.14-10.52-1.48-1.33-1.38-2.13,0-3.48,3.69-3.71,7.25-7.54,10.8-11.38.89-1,1.47-1.37,2.62-.25,4,3.91,8.14,7.71,12.21,11.57C87.77,67.71,88.07,68.1,88.45,68.52Z"/></g></g></svg>