<svg xmlns="http://www.w3.org/2000/svg" viewBox="0 0 218.48 35.55"><defs><style>.cls-1{fill:#40479d;}.cls-2{fill:#ee2926;}.cls-3{fill:#ee2a26;}.cls-4{fill:#dedcef;}.cls-5{fill:#7775b7;}.cls-6{fill:#f7f6fb;}.cls-7{fill:#fff0e9;}</style></defs><title>Asset 3</title><g id="Layer_2" data-name="Layer 2"><g id="Layer_1-2" data-name="Layer 1"><path class="cls-1" d="M87.06,19.25c0-4.85.11-9.71-.13-14.55C86.77,1.49,88.86,2,90.58,2.23S95.07.78,95,4.68c-.11,9.33-.07,18.65,0,28,0,1.76-.51,2.58-2.32,2.34A2.1,2.1,0,0,0,92,35c-6.3,1.16-10.37-.93-12.61-7.33-1.58-4.51-4.4-8.59-6.67-12.86-1.92.35-1,1.86-1,2.83-.32,5.78.45,11.58-.41,17.35-7.48,0-7.48,0-7.48-7.55s.1-15-.06-22.44c0-2.36.8-2.62,3-2.94C73.05,1.14,77,3.22,79.29,9.57c1.75,4.87,4.65,9.34,7,14C88.23,22.4,87.16,20.74,87.06,19.25Z"/><path class="cls-1" d="M26.91,35C30.35,24.34,33.66,14.08,37,3.84c.31-1,.66-1.8,2-1.77,3,.08,6,.1,9,0,1.6-.06,1.8,1.07,2.13,2.07,3.15,9.55,6.19,19.12,9.43,28.64.69,2,.07,2.36-1.72,2.24a17.13,17.13,0,0,0-3.72,0c-2.69.4-4.24-.56-4.43-3.34-.16-2.18-1.24-3.05-3.42-2.79a16,16,0,0,1-3.73,0c-3-.38-5,.36-5.26,3.83-.1,1.8-1.15,2.44-3,2.31C31.93,34.87,29.6,35,26.91,35Z"/><path class="cls-2" d="M202.29,12.48c3.51-3.72,7.41-4.08,11.48-2.32s4.59,5.56,4.65,9.42c.06,4.24-.09,8.48.05,12.72.08,2.1-.57,2.73-2.71,2.75-6.16.05-6.16.15-6.16-5.92,0-2.86.08-5.74-.06-8.6-.11-2-.24-4.22-3-4.34-2.53-.11-3.37,1.64-3.8,3.78-.8,4-.43,8-.37,11.94,0,2.34-.47,3.51-3,3.11a11.09,11.09,0,0,0-3,0c-2.06.25-2.78-.46-2.76-2.64.12-9.85.1-19.7,0-29.55,0-2.09.61-3,2.76-2.77a12.46,12.46,0,0,0,3,0c2.21-.27,3.16.46,3,2.85C202.14,5.88,202.29,8.88,202.29,12.48Z"/><path class="cls-1" d="M14.22,9.44c-3.86,0-7-.22-10.07.07S.48,8.49.48,5.7,1.06,2,4,2.1c5.59.25,11.2,0,16.81.12,1.5,0,3.73-1,4.37.79a6.58,6.58,0,0,1-.94,6.34c-3.63,4.9-7.08,9.93-10.53,15-.67,1-1.79,1.77-1.7,3.49,3.72,0,7.44.16,11.13,0s2.39,2.3,2.52,4,.43,3.39-2.45,3.28c-6.1-.22-12.2,0-18.3-.1-1.54,0-3.94.85-4.46-.62a7,7,0,0,1,1-6.68C5.11,22.79,8.51,17.73,12,12.74,12.64,11.85,13.22,10.94,14.22,9.44Z"/><path class="cls-2" d="M155.83,24.61c-1.62,0-3.24-.09-4.85,0-.86.07-2.21-.69-2.52.68A2.72,2.72,0,0,0,150,28.09c2.91,1.75,5.95,1,9,.42,1-.18,2.7-1.93,3-.15s1.54,4.48-1.38,5.88c-4.79,2.3-13.82,1.52-17.41-1.87-4.64-4.4-4.7-9.95-3.05-15.57,1.82-6.2,8.56-9.07,16-7.12,5.48,1.45,9,7.77,7.78,13.6-.33,1.5-1.23,1.3-2.17,1.32C159.81,24.63,157.82,24.61,155.83,24.61Z"/><path class="cls-3" d="M124.21,2.17c3.24,0,6.49.18,9.71,0s2.52,2,2.46,3.67,1,3.78-2.33,3.79c-5.51,0-5.51.21-5.51,5.72s-.11,11.21.05,16.81c.07,2.31-.6,3-2.91,2.94-6-.05-6,.08-6-5.75,0-5.23-.26-10.48.09-15.68C120,10,118.72,9,115.46,9.52c-3,.53-4-.55-3.95-3.74.06-2.93.78-3.93,3.74-3.66S121.22,2.17,124.21,2.17Z"/><path class="cls-2" d="M188.79,26.53c-.82,3.09,1.64,6.48-2.79,8-5.61,1.91-12.43.73-15.53-3.09-3.72-4.57-3.59-13.65.25-18.16,3.41-4,12.51-5.42,17.37-2.81,2.33,1.26.42,2.53.09,3.68-.48,1.66-.62,3.62-3.61,2.66-5.36-1.71-7.76.12-7.85,5.35s2.22,7.1,7.25,6A49.15,49.15,0,0,0,188.79,26.53Z"/><path class="cls-4" d="M71.21,35c.54-7.29.14-14.59,0-23l1.44,2.82c-1.42,5.31-.22,10.71-.65,16.06C71.9,32.26,72.68,33.85,71.21,35Z"/><path class="cls-5" d="M87.06,19.25a5.57,5.57,0,0,1,.53,4.64c-.48,1.8-1,.36-1.27-.34C87.61,22.29,86.44,20.62,87.06,19.25Z"/><path class="cls-6" d="M43.92,9.69c.84,3.09,1.73,6.18,2.48,9.29.19.75.88,2.11,0,2.29a14.64,14.64,0,0,1-5.48.08c-1.11-.19-.4-1.49-.22-2.22.77-3.18,1.64-6.33,2.48-9.49Z"/><path class="cls-7" d="M148.68,19c.67-3.25,2.5-4.57,4.92-3.59a2.86,2.86,0,0,1,2.1,2.76c-.11,1.86-1.7.85-2.61,1a20.8,20.8,0,0,1-3.35,0A8.15,8.15,0,0,1,148.68,19Z"/></g></g></svg>