<svg id="Layer_1" data-name="Layer 1" xmlns="http://www.w3.org/2000/svg" viewBox="0 0 143.95 143.61"><defs><style>.cls-1{fill:#ee2926;}.cls-2{fill:#41489e;}.cls-3{fill:#42489e;}.cls-4{fill:#42499e;}.cls-5{fill:#43499e;}.cls-6{fill:#444a9f;}.cls-7{fill:#d6d4eb;}.cls-8{fill:#e4e3f2;}.cls-9{fill:#e0dff0;}.cls-10{fill:#d3d2e9;}.cls-11{fill:#ebeaf5;}.cls-12{fill:#dedcef;}.cls-13{fill:#e9e8f4;}.cls-14{fill:#dcdbee;}.cls-15{fill:#e7e6f3;}.cls-16{fill:#eae9f5;}.cls-17{fill:#ecebf6;}.cls-18{fill:#e8e7f4;}.cls-19{fill:#7c7aba;}.cls-20{fill:#7d7bba;}.cls-21{fill:#8b88c2;}.cls-22{fill:#9390c6;}.cls-23{fill:#9996ca;}.cls-24{fill:#6c6cb1;}.cls-25{fill:#7573b6;}.cls-26{fill:#7675b7;}.cls-27{fill:#9c9acb;}.cls-28{fill:#9592c7;}.cls-29{fill:#a09dce;}.cls-30{fill:#7674b6;}.cls-31{fill:#fffffe;}</style></defs><title>logo</title><path class="cls-1" d="M435.08,345.24c-.1,1.12-.87,1.63-1.44,2.25-8.82,9.47-17.69,18.9-26.43,28.44-1.43,1.57-2.25,1.22-3.54,0Q389.41,362.49,375,349.16c-1.32-1.23-1.35-2-.15-3.25Q388.5,331.55,402,317.08c1.1-1.19,1.81-1.24,3-.12q14.43,13.55,28.93,27C434.36,344.37,434.73,344.86,435.08,345.24Z" transform="translate(-330.03 -277.73)"/><path class="cls-2" d="M360.84,400.43c-7.55-4.84-12.69-11.89-16.89-19.5a68.62,68.62,0,0,1,44.3-100.19c3.68-.89,7.73-.34,11.06-2.77.74-.54,1.7-.09,2.34.63a2.31,2.31,0,0,1,.41,2.74,2,2,0,0,1-2.16,1.17c-8.69-1.9-16.39,1.5-23.87,4.9-43.15,19.61-52.12,77.11-17.15,109,.82.74,1.89,1.26,2.12,2.5A1.13,1.13,0,0,1,360.84,400.43Z" transform="translate(-330.03 -277.73)"/><path class="cls-2" d="M431.93,379.52a49.53,49.53,0,0,1-22.53,10.07c-22.92,3.66-46.4-15-47.8-38.2-1.38-22.95,12.4-40.93,34.94-45.57a7.79,7.79,0,0,0,3.74-1.48,2,2,0,0,1,2.7.37,2.1,2.1,0,0,1,.55,2.39,2.25,2.25,0,0,1-2.32,1.57c-15-1-24.9,7.11-32,18.84-10.24,16.79-6.12,38.38,9,51a40.44,40.44,0,0,0,51.33.13c.28-.23.59-.44.89-.66a1.93,1.93,0,0,1,1.55-.42C433.25,378.17,432.9,378.84,431.93,379.52Z" transform="translate(-330.03 -277.73)"/><path class="cls-2" d="M462.57,370.56c-3.73,11.41-11,20.28-20.38,27.37a63.26,63.26,0,0,1-89.94-13.66,9.86,9.86,0,0,0-3.48-3.22,2,2,0,0,1-.73-2.63,2.12,2.12,0,0,1,2.31-1.51c1.06.06,2.16.64,2.14,1.72-.05,4.13,3,6.45,5.31,9.08,28.76,33.18,82.77,25.65,101.41-14.09.66-1.42,1.71-2.8,1.23-4.56a1.08,1.08,0,0,1,1-.12A2.13,2.13,0,0,1,462.57,370.56Z" transform="translate(-330.03 -277.73)"/><path class="cls-2" d="M401.34,400.69c-4-1.26-8.37-1.08-12.42-2.44-21.54-7.22-34.65-22-37.46-44.46-2.72-21.73,6.23-38.8,24.4-51,1.14-.76,2.32-1.33,2.88-2.75a2,2,0,0,1,2.79-1.12,2.3,2.3,0,0,1,1.65,2.61,2.06,2.06,0,0,1-2.34,1.95c-2.31-.43-3.78,1-5.35,2.07-18.64,13-26.53,34.71-20.41,56.13,5.83,20.38,24.42,35.07,46.22,36.52A1.8,1.8,0,0,1,401.34,400.69Z" transform="translate(-330.03 -277.73)"/><path class="cls-3" d="M460.36,395.23c-11.71,13.15-26,21.92-43.46,24.93-20.91,3.6-40-1.06-57.17-13.47-1.87-1.35-3.33-3.33-6-3.49-1-.06-1.57-1.21-1.5-2.29a2.15,2.15,0,0,1,1.77-2.12,2,2,0,0,1,2.55,1c2.16,5.16,7.11,7.14,11.38,9.61,30.21,17.53,67.39,11.11,90.33-15.39a3.31,3.31,0,0,1,.58-.45C460,393.53,460.62,394,460.36,395.23Z" transform="translate(-330.03 -277.73)"/><path class="cls-4" d="M359.15,365.38C357.7,359,356,352.69,356.21,346c.62-24.51,21.18-45.16,45.7-45.93,4.69-.14,9.33,1.35,14,.2.95-.23,1.63.42,2.08,1.25a2.31,2.31,0,0,1-.35,2.77,2,2,0,0,1-2.38.53c-16.52-6.58-30.33-.75-42.72,9.85-13.09,11.18-17.9,32.46-11.52,48.3a3.24,3.24,0,0,0,.72.82C361.56,365.41,360.6,365.8,359.15,365.38Z" transform="translate(-330.03 -277.73)"/><path class="cls-4" d="M359.43,310.06c13.16-14.58,29.4-21.75,49.16-20.31a56.55,56.55,0,0,1,32,12.86c1.34,1.09,2.47,2.41,4.39,2.65a2.06,2.06,0,0,1,1.77,2.46,2.39,2.39,0,0,1-1.88,2.1,2,2,0,0,1-2.64-1.48c-.45-2.21-2.12-3.3-3.63-4.53-23.48-19-58.93-15.21-77.9,8.37a.91.91,0,0,1-.86.12,2,2,0,0,1-.88-1A1,1,0,0,1,359.43,310.06Z" transform="translate(-330.03 -277.73)"/><path class="cls-4" d="M340,344.15c1.38-4.37,1.34-9,2.75-13.42C351,305,368.25,289.62,395,285.07c1.78-.3,3.72-.13,5.19-1.71.79-.85,1.87-.35,2.68.32a2.06,2.06,0,0,1,.55,2.69,2.12,2.12,0,0,1-2.47,1.25c-8.31-2-15.79,1.21-22.84,4.57-19.81,9.46-31.49,25.32-35,47.07a42.91,42.91,0,0,0-.2,5.21A1.93,1.93,0,0,1,340,344.15Z" transform="translate(-330.03 -277.73)"/><path class="cls-4" d="M472.42,352.47c-3,26.89-16.51,46.34-41.17,57.81a8.55,8.55,0,0,0-2.78,2.38,2.38,2.38,0,0,1-3.91-1.89c.21-1,.85-2.06,1.9-2.06,7.13,0,12.23-4.5,17.32-8.34,15.81-11.94,24.64-27.95,26.24-47.81A1.74,1.74,0,0,1,472.42,352.47Z" transform="translate(-330.03 -277.73)"/><path class="cls-5" d="M334.55,375.83c.69-3.91-1.64-7.16-2.45-10.73-4-17.65-2.23-34.55,5.78-50.78.92-1.86,2.34-3.49,2.09-5.83-.13-1.13.92-1.8,1.9-2a2.39,2.39,0,0,1,2.09,4c-5.7,4.14-6.94,10.71-8.76,16.74a68.15,68.15,0,0,0,2.34,47C336.84,375.36,336,376.25,334.55,375.83Z" transform="translate(-330.03 -277.73)"/><path class="cls-6" d="M389.29,381.16c-6.66-1.65-10.93-6.46-15.2-11.34-4.55-5.2-5.12-12.24-8.49-18-.48-.83.13-1.69.79-2.32a2,2,0,0,1,2.4-.46,2.3,2.3,0,0,1,1.58,2.32c-1.59,9.4,4,15.63,9.73,21.67a21.29,21.29,0,0,0,10.55,6.54C391.05,380.85,390.39,381.19,389.29,381.16Z" transform="translate(-330.03 -277.73)"/><path class="cls-6" d="M440.93,352.58c-2.24,11.39-7.83,20.53-17.8,26.8-.78.49-1.16,1.56-1.81,2.27a2.06,2.06,0,0,1-2.69.52,2.41,2.41,0,0,1-1.38-2.08,2.11,2.11,0,0,1,1.57-2.27c11.34-2.87,15.5-12,19-21.73a29.32,29.32,0,0,0,.8-3.63A1.7,1.7,0,0,1,440.93,352.58Z" transform="translate(-330.03 -277.73)"/><path class="cls-6" d="M437.93,288.11a67.16,67.16,0,0,1,16.73,13.51,9.88,9.88,0,0,0,3.64,2.43,2,2,0,0,1,1.07,2.52,2.42,2.42,0,0,1-1.75,1.78,2,2,0,0,1-2.55-1c-3.29-8.49-11.07-12.25-17.84-17.08-.51-.08-1-.22-1-.84C436.43,288.52,436.84,287.86,437.93,288.11Z" transform="translate(-330.03 -277.73)"/><path class="cls-7" d="M359.15,365.38a3.21,3.21,0,0,0,2.62-1.6c2.06.59,2.3,2.26,1.76,3.81-.35,1-1.2,2.48-2.7,2.07C358.57,369,359.61,366.86,359.15,365.38Z" transform="translate(-330.03 -277.73)"/><path class="cls-8" d="M360.84,400.43,361,399c1.95-.44,4-.57,4.19,2a2.66,2.66,0,0,1-2.74,2.93C360.23,403.81,361,401.79,360.84,400.43Z" transform="translate(-330.03 -277.73)"/><path class="cls-9" d="M401.34,400.69l0-2.48c.1-.06.22-.11.32-.18,1.31-1,2.57-1.95,4.1-.23a1.65,1.65,0,0,1-.09,2.54C404.3,401.81,402.92,402.39,401.34,400.69Z" transform="translate(-330.03 -277.73)"/><path class="cls-10" d="M334.55,375.83c1.1-.33,1.64-1.71,3-1.57l1.6.49c.85,1.46.13,2.68-.58,3.91C335.64,379.54,334.15,378.48,334.55,375.83Z" transform="translate(-330.03 -277.73)"/><path class="cls-11" d="M462.57,370.56l-1.49-1.47a1.85,1.85,0,0,1,.07-2.47c.26-1.66,1.44-1.42,2.47-1.06a2.75,2.75,0,0,1,1.71,2.59C465.4,369.89,463.59,369.86,462.57,370.56Z" transform="translate(-330.03 -277.73)"/><path class="cls-12" d="M440.93,352.58l-2.33-.12c-1.83-1.4-.82-2.84.22-3.91a1.81,1.81,0,0,1,2.85.36C442.87,350.44,442.24,351.57,440.93,352.58Z" transform="translate(-330.03 -277.73)"/><path class="cls-13" d="M460.36,395.23a2.52,2.52,0,0,0-1.5-1.68c.06-1.28-.35-2.81,1.34-3.35,1.06-.34,2.23-.42,2.4,1.22a3.39,3.39,0,0,1,.79,2.63C462.78,395.45,461.24,394.49,460.36,395.23Z" transform="translate(-330.03 -277.73)"/><path class="cls-14" d="M472.42,352.47l-2.4.09c-1.31-1.33-.44-3-.65-4.49,1,0,2.12-.68,2.76.68C475.3,349.75,473.68,351.12,472.42,352.47Z" transform="translate(-330.03 -277.73)"/><path class="cls-15" d="M431.93,379.52c0-.5,1.07-1,0-1.49-1.87-1.12-.79-2.38-.19-3.62a2,2,0,0,1,2.34-.14c1.68.78,2.32,1.85,1,3.46C434.88,379.86,433.36,379.6,431.93,379.52Z" transform="translate(-330.03 -277.73)"/><path class="cls-16" d="M389.29,381.16l1.36-1.57c3.47-1,3.79.83,3.18,3.51-1.35,1.21-2.75.8-4.17.15Z" transform="translate(-330.03 -277.73)"/><path class="cls-17" d="M437.93,288.11c-.74.32-1.42.7-1.47,1.64a2.3,2.3,0,0,1-3-.4c-.9-.83-1.5-1.67-.07-2.57C436.1,283.25,436.7,286.76,437.93,288.11Z" transform="translate(-330.03 -277.73)"/><path class="cls-18" d="M359.46,311.25l.84.84c.57,1.56.33,2.74-1.53,3.12-1.58-.07-3.45.15-2.44-2.48C356.75,310.92,357.91,310.67,359.46,311.25Z" transform="translate(-330.03 -277.73)"/><path class="cls-11" d="M340,344.15l2.94.32a4.19,4.19,0,0,0,.32.59c1.41,1.29.76,2.22-.51,3.05l-2.49,0c-1.32-.91-1.05-2-.34-3.13Z" transform="translate(-330.03 -277.73)"/><path class="cls-19" d="M359.46,311.25a3.05,3.05,0,0,0-3.13,1.48c-.62-2.8,1.6-2.31,3.1-2.67Z" transform="translate(-330.03 -277.73)"/><path class="cls-20" d="M358.77,315.21c1.3-.65,1.51-1.84,1.53-3.12a.46.46,0,0,1,.42.09C361.44,314.6,361,315.34,358.77,315.21Z" transform="translate(-330.03 -277.73)"/><path class="cls-21" d="M435,377.73c.64-1.41-.2-2.43-1-3.46C436.74,375.14,437,376,435,377.73Z" transform="translate(-330.03 -277.73)"/><path class="cls-22" d="M389.66,383.25l4.17-.14C392.53,385.65,391.11,384.85,389.66,383.25Z" transform="translate(-330.03 -277.73)"/><path class="cls-23" d="M339.92,345c.12,1.05.23,2.09.34,3.13C338.5,347.28,337.16,346.37,339.92,345Z" transform="translate(-330.03 -277.73)"/><path class="cls-24" d="M431.75,374.41c-.09,1.21-.81,2.46.19,3.62l-1.6-.07C430.49,376.65,430.25,375.18,431.75,374.41Z" transform="translate(-330.03 -277.73)"/><path class="cls-25" d="M433.44,288.91c.81,1,2,.65,3,.84l.77.5c-1.32.1-2.72.95-3.89-.41A.56.56,0,0,1,433.44,288.91Z" transform="translate(-330.03 -277.73)"/><path class="cls-26" d="M342.75,348.11a2.65,2.65,0,0,0,.51-3.05c1.54,0,1.28,1.19,1.08,2C344.19,347.72,344,348.88,342.75,348.11Z" transform="translate(-330.03 -277.73)"/><path class="cls-25" d="M338.56,378.66c.19-1.3.39-2.6.58-3.91C340.55,376.29,340.22,377.58,338.56,378.66Z" transform="translate(-330.03 -277.73)"/><path class="cls-27" d="M433.44,288.91c0,.31-.07.62-.1.93-1.2-1-2.69-2.11.08-3.06A2.35,2.35,0,0,0,433.44,288.91Z" transform="translate(-330.03 -277.73)"/><path class="cls-28" d="M461.15,366.62l-.07,2.47a4.57,4.57,0,0,1-.64,0C459.07,367.78,459.55,367,461.15,366.62Z" transform="translate(-330.03 -277.73)"/><path class="cls-29" d="M463.39,394.05c-1-.66-.56-1.74-.79-2.63C464.84,391.7,464.21,392.85,463.39,394.05Z" transform="translate(-330.03 -277.73)"/><path class="cls-30" d="M472.13,348.75c-.8-.73-2,.29-2.76-.68C470.48,347.51,471.76,346.27,472.13,348.75Z" transform="translate(-330.03 -277.73)"/><path class="cls-31" d="M418.48,346.26c-.45.51-.83,1-1.25,1.45-3.6,3.8-7.27,7.54-10.77,11.43-1.33,1.48-2.13,1.36-3.47,0-3.63-3.59-7.34-7.11-11.14-10.52-1.49-1.32-1.38-2.12,0-3.47,3.68-3.71,7.25-7.54,10.8-11.39.89-1,1.47-1.36,2.62-.25,4,3.92,8.13,7.72,12.21,11.57C417.8,345.45,418.1,345.84,418.48,346.26Z" transform="translate(-330.03 -277.73)"/></svg>